<svg width="24" height="24" viewBox="0 0 24 24" fill="none" xmlns="http://www.w3.org/2000/svg">
<path d="M22 7.70002V16.3C22 16.53 21.9 16.69 21.7 16.78C21.5 16.86 21.32 16.82 21.15 16.65L18 13.5V14.02L8.03 4.00002H16C16.55 4.00002 17.02 4.20002 17.41 4.59002C17.8 4.98002 18 5.45002 18 6.00002V10.5L21.15 7.35002C21.32 7.18002 21.5 7.14002 21.7 7.22002C21.9 7.31002 22 7.47002 22 7.70002ZM18 16.83L5.24 4.00002L3.7 2.45002C3.5 2.25002 3.3 2.15002 3 2.15002C2.7 2.15002 2.5 2.25002 2.3 2.45002C2.1 2.65002 2 2.85002 2 3.15002C2 3.45002 2.1 3.65002 2.3 3.85002L2.83 4.39002C2.74 4.45002 2.67 4.51002 2.59 4.59002C2.2 4.98002 2 5.45002 2 6.00002V18C2 18.55 2.2 19.02 2.59 19.41C2.98 19.8 3.45 20 4 20H16C16.55 20 17.02 19.8 17.41 19.41C17.47 19.35 17.53 19.28 17.58 19.21L19.9 21.55C20.1 21.75 20.3 21.85 20.6 21.85C20.8 21.85 21.1 21.75 21.3 21.55C21.5 21.35 21.6 21.15 21.6 20.85C21.6 20.55 21.5 20.35 21.3 20.15L18 16.83Z" fill="#141414"/>
</svg>
