<svg width="24" height="24" viewBox="0 0 24 24" fill="none" xmlns="http://www.w3.org/2000/svg">
<path d="M6.66667 11.1111H8.44444C9.15169 11.1111 9.82997 10.8302 10.3301 10.3301C10.8302 9.82997 11.1111 9.15169 11.1111 8.44444V6.66667C11.1111 5.95942 10.8302 5.28115 10.3301 4.78105C9.82997 4.28095 9.15169 4 8.44444 4H6.66667C5.95942 4 5.28115 4.28095 4.78105 4.78105C4.28095 5.28115 4 5.95942 4 6.66667V8.44444C4 9.15169 4.28095 9.82997 4.78105 10.3301C5.28115 10.8302 5.95942 11.1111 6.66667 11.1111ZM6.66667 20H17.3333C18.0406 20 18.7189 19.719 19.219 19.219C19.719 18.7189 20 18.0406 20 17.3333V6.66667C20 5.95942 19.719 5.28115 19.219 4.78105C18.7189 4.28095 18.0406 4 17.3333 4H12C12.5817 4.76686 12.8941 5.70418 12.8889 6.66667V8.44444C12.8889 9.62318 12.4206 10.7536 11.5871 11.5871C10.7536 12.4206 9.62318 12.8889 8.44444 12.8889H6.66667C5.70418 12.8941 4.76686 12.5817 4 12V17.3333C4 18.0406 4.28095 18.7189 4.78105 19.219C5.28115 19.719 5.95942 20 6.66667 20ZM12.8889 13.7778C12.8903 13.6616 12.9145 13.5469 12.96 13.44C13.0502 13.2228 13.2228 13.0502 13.44 12.96C13.5469 12.9145 13.6616 12.8903 13.7778 12.8889H16.4444C16.6802 12.8889 16.9063 12.9825 17.073 13.1492C17.2397 13.3159 17.3333 13.542 17.3333 13.7778C17.3333 14.0135 17.2397 14.2396 17.073 14.4063C16.9063 14.573 16.6802 14.6667 16.4444 14.6667H15.92L17.9644 16.7022C18.1318 16.8696 18.2259 17.0966 18.2259 17.3333C18.2259 17.57 18.1318 17.7971 17.9644 17.9644C17.7971 18.1318 17.57 18.2259 17.3333 18.2259C17.0966 18.2259 16.8696 18.1318 16.7022 17.9644L14.6667 15.92V16.4444C14.6667 16.6802 14.573 16.9063 14.4063 17.073C14.2396 17.2397 14.0135 17.3333 13.7778 17.3333C13.542 17.3333 13.3159 17.2397 13.1492 17.073C12.9825 16.9063 12.8889 16.6802 12.8889 16.4444V13.7778Z" fill="#141414"/>
</svg>
