<svg width="24" height="24" viewBox="0 0 24 24" fill="none" xmlns="http://www.w3.org/2000/svg">
<path d="M11.991 19.8442C11.7881 19.8442 11.5843 19.8078 11.3797 19.735C11.1751 19.6621 10.995 19.5479 10.8395 19.3925L9.47858 18.1555C7.7989 16.6239 6.29921 15.1194 4.97953 13.6418C3.65984 12.1642 3 10.5813 3 8.89309C3 7.54862 3.45332 6.42299 4.35995 5.5162C5.26674 4.60957 6.39237 4.15625 7.73684 4.15625C8.50074 4.15625 9.25532 4.33238 10.0006 4.68464C10.7457 5.03691 11.4122 5.60896 12 6.4008C12.5878 5.60896 13.2543 5.03691 13.9994 4.68464C14.7447 4.33238 15.4993 4.15625 16.2632 4.15625C17.6076 4.15625 18.7333 4.60957 19.6401 5.5162C20.5467 6.42299 21 7.54862 21 8.89309C21 10.5996 20.3289 12.2001 18.9868 13.6946C17.6447 15.1891 16.1484 16.6809 14.4977 18.17L13.1513 19.3925C12.9959 19.5479 12.8144 19.6621 12.6068 19.735C12.399 19.8078 12.1937 19.8442 11.991 19.8442Z" fill="#141414"/>
</svg>
