<svg width="24" height="24" viewBox="0 0 24 24" fill="none" xmlns="http://www.w3.org/2000/svg">
<path d="M16.1825 16.6409C14.6787 15.7844 13.872 14.171 13.9517 12.5577C13.9916 11.8108 14.7982 11.3527 15.4456 11.7311L20.7836 14.7885C21.4309 15.157 21.4508 16.0832 20.8234 16.5014C19.469 17.3977 17.6764 17.5073 16.1726 16.6508L16.1825 16.6409ZM12.5276 21.8892C13.1948 22.2278 13.9916 21.7498 13.9916 21.0029L13.9716 14.8483C13.9716 14.1013 13.1749 13.6333 12.5077 13.9719C11.0636 14.7088 10.0777 16.2126 10.0777 17.9455C10.0777 19.6783 11.0835 21.1722 12.5376 21.8992L12.5276 21.8892ZM3.70397 17.3977C3.75377 18.1447 4.56044 18.5928 5.20777 18.2144L10.5258 15.1171C11.1732 14.7387 11.1831 13.8125 10.5557 13.4042C9.20131 12.5179 7.39874 12.4183 5.9049 13.2847C4.41106 14.1511 3.60438 15.7844 3.70397 17.3977ZM3.17615 7.50852C2.54873 7.92679 2.56865 8.84302 3.21598 9.22146L8.55398 12.2788C9.20131 12.6473 10.008 12.1992 10.0478 11.4523C10.1374 9.82895 9.33077 8.22556 7.81701 7.36909C6.30325 6.51262 4.5206 6.62217 3.16619 7.51848L3.17615 7.50852ZM11.4819 2.11077C10.8147 1.77217 10.0179 2.2502 10.0179 2.99712L10.0379 9.15174C10.0379 9.89866 10.8346 10.3667 11.5018 10.0281C12.9459 9.29117 13.9318 7.78737 13.9318 6.05451C13.9318 4.32166 12.9359 2.83777 11.4819 2.11077ZM20.3155 6.60225C20.2657 5.85533 19.459 5.40718 18.8117 5.78562L13.4936 8.88285C12.8463 9.26129 12.8363 10.1875 13.4637 10.5958C14.8181 11.4821 16.6207 11.5817 18.1146 10.7153C19.6084 9.84887 20.4151 8.23552 20.3155 6.61221V6.60225Z" fill="#141414"/>
</svg>
