<svg width="24" height="24" viewBox="0 0 24 24" fill="none" xmlns="http://www.w3.org/2000/svg">
<path d="M10.8708 4.93744V9.79744C10.8708 10.6074 10.2208 11.2574 9.41082 11.2574H4.55082C3.74082 11.2574 3.09082 10.6074 3.09082 9.79744V4.93744C3.09082 4.12744 3.74082 3.47744 4.55082 3.47744H9.41082C10.2208 3.47744 10.8708 4.12744 10.8708 4.93744ZM9.41082 13.2174H4.55082C3.74082 13.2174 3.09082 13.8674 3.09082 14.6774V19.5374C3.09082 20.3474 3.74082 20.9974 4.55082 20.9974H9.41082C10.2208 20.9974 10.8708 20.3474 10.8708 19.5374V14.6774C10.8708 13.8674 10.2208 13.2174 9.41082 13.2174ZM19.1308 13.2174H14.2708C13.4608 13.2174 12.8108 13.8674 12.8108 14.6774V19.5374C12.8108 20.3474 13.4608 20.9974 14.2708 20.9974H19.1308C19.9408 20.9974 20.5908 20.3474 20.5908 19.5374V14.6774C20.5908 13.8674 19.9408 13.2174 19.1308 13.2174ZM20.7508 7.15744L19.7408 6.76744C18.6108 6.32744 17.7308 5.41744 17.3308 4.27744L16.9408 3.16744C16.8608 2.94744 16.5408 2.94744 16.4608 3.16744L16.0708 4.27744C15.6708 5.41744 14.7908 6.31744 13.6608 6.76744L12.6508 7.15744C12.4408 7.23744 12.4408 7.53744 12.6508 7.62744L13.6608 8.01744C14.7908 8.45744 15.6708 9.36744 16.0708 10.5074L16.4608 11.6174C16.5408 11.8374 16.8608 11.8374 16.9408 11.6174L17.3308 10.5074C17.7308 9.36744 18.6108 8.46744 19.7408 8.01744L20.7508 7.62744C20.9608 7.54744 20.9608 7.24744 20.7508 7.15744Z" fill="#141414"/>
</svg>
