<svg width="24" height="24" viewBox="0 0 24 24" fill="none" xmlns="http://www.w3.org/2000/svg">
<path d="M21.45 16.55C21.08 15.95 20.6 15.5 20 15.19C18.7 14.54 17.39 14.06 16.06 13.73C15.84 13.68 15.63 13.63 15.41 13.59C14.53 14.39 13.35 14.98 12 15.25C10.65 14.98 9.46 14.39 8.59 13.59C8.37 13.63 8.15 13.68 7.93 13.73C6.6 14.06 5.29 14.54 4 15.19C3.39 15.5 2.91 15.95 2.54 16.55C2.18 17.14 2 17.79 2 18.5V19.5C2 20.19 2.24 20.78 2.73 21.27C3.22 21.76 3.81 22 4.5 22H19.5C20.18 22 20.77 21.76 21.26 21.27C21.75 20.78 22 20.19 22 19.5V18.5C22 17.79 21.81 17.14 21.45 16.55ZM10 20H6C5.44 20 5 19.55 5 19C5 18.45 5.44 18 6 18H10C10.55 18 11 18.45 11 19C11 19.55 10.55 20 10 20ZM17 20C16.44 20 16 19.55 16 19C16 18.45 16.44 18 17 18C17.56 18 18 18.45 18 19C18 19.55 17.55 20 17 20ZM6.31 3.24C6.15 2.61 6.63 2 7.28 2H16.72C17.37 2 17.85 2.61 17.69 3.24L17 6H7L6.31 3.24ZM7.31 8.76C7.22 8.52 7.15 8.26 7.1 8H16.9C16.85 8.26 16.79 8.51 16.69 8.75C16.45 9.4 16.07 9.99 15.53 10.53C14.55 11.51 13.37 12 12 12C10.63 12 9.44 11.51 8.46 10.53C7.93 10 7.54 9.41 7.31 8.76Z" fill="#141414"/>
</svg>
