<svg width="24" height="24" viewBox="0 0 24 24" fill="none" xmlns="http://www.w3.org/2000/svg">
<path d="M14.6108 21.7498L8.6665 19.6665L3.49996 21.6665C3.31478 21.7405 3.13423 21.7637 2.95831 21.7359C2.78239 21.7081 2.62036 21.6479 2.47221 21.5554C2.32407 21.4628 2.20833 21.3378 2.125 21.1804C2.04167 21.023 2 20.8424 2 20.6387V5.05576C2 4.81502 2.06944 4.60206 2.20833 4.41688C2.34721 4.2317 2.53702 4.09282 2.77776 4.00023L7.9443 2.25027C8.05541 2.21323 8.17115 2.18546 8.29151 2.16694C8.41188 2.14842 8.53688 2.13916 8.6665 2.13916C8.79613 2.13916 8.92113 2.14842 9.04149 2.16694C9.16186 2.18546 9.2776 2.21323 9.38871 2.25027L15.333 4.33355L20.4995 2.3336C20.6847 2.25953 20.8653 2.23638 21.0412 2.26416C21.2171 2.29193 21.3792 2.35212 21.5273 2.44471C21.6754 2.5373 21.7912 2.6623 21.8745 2.8197C21.9578 2.9771 21.9995 3.15765 21.9995 3.36135V18.9443C21.9995 19.185 21.9301 19.398 21.7912 19.5832C21.6523 19.7684 21.4625 19.9072 21.2218 19.9998L16.0552 21.7498C15.9441 21.7868 15.8284 21.8146 15.708 21.8331C15.5876 21.8516 15.4626 21.8609 15.333 21.8609C15.2034 21.8609 15.0784 21.8516 14.958 21.8331C14.8376 21.8146 14.7219 21.7868 14.6108 21.7498ZM14.2219 19.2776V6.27795L9.77759 4.72243V17.7221L14.2219 19.2776Z" fill="#141414"/>
</svg>
