<svg width="24" height="24" viewBox="0 0 24 24" fill="none" xmlns="http://www.w3.org/2000/svg">
<path d="M12.59 14.08C10.61 14.08 9 12.47 9 10.49V2H7C6.5 2 6 2.2 5.6 2.6C5.2 3 5 3.5 5 4V20C5 20.6 5.2 21 5.6 21.4C6 21.8 6.5 22 7 22H15C15.6 22 16 21.8 16.4 21.4C16.8 21 17 20.5 17 20V14.08H12.59ZM11 20C10.4 20 10 19.6 10 19C10 18.4 10.4 18 11 18C11.6 18 12 18.4 12 19C12 19.6 11.6 20 11 20ZM17.89 4.96V4.88C17.89 3.29 16.59 2 15 2C13.41 2 12.12 3.29 12.12 4.88V4.96C11.48 5.15 11 5.76 11 6.48V10.49C11 11.37 11.71 12.08 12.59 12.08H17.41C18.29 12.08 19 11.37 19 10.49V6.48C19 5.76 18.53 5.16 17.89 4.96ZM15 9.49C14.44 9.49 14 9.03 14 8.48C14 7.93 14.44 7.49 15 7.49C15.56 7.49 16 7.93 16 8.48C16 9.03 15.56 9.49 15 9.49ZM15.97 4.89H14.04C14.04 4.35 14.47 3.92 15 3.92C15.53 3.92 15.97 4.35 15.97 4.88V4.89Z" fill="#141414"/>
</svg>
